<svg width="355" height="134" viewBox="0 0 355 134" fill="none" xmlns="http://www.w3.org/2000/svg">
<path d="M79.3307 25.1617C61.535 35.4209 45.5818 48.4922 32.0857 63.7645L51.6005 80.6909C63.5063 72.2369 77.0598 65.5736 91.7574 61.1535L79.3307 25.1617Z" fill="white"/>
<path d="M83.7286 22.704L96.5385 59.8058C108.421 56.6778 120.992 55 134 55C142.868 55 151.534 55.7798 159.916 57.2673L158.471 0.604263C131.569 2.7458 106.259 10.5058 83.7286 22.704Z" fill="white"/>
<path d="M0.531372 113.345C7.75163 96.6835 17.331 81.2708 28.8509 67.5234L47.515 83.7119C37.8133 91.1798 29.3226 99.8813 22.3441 109.546C20.4463 109.187 18.4935 109 16.5 109C10.718 109 5.27823 110.574 0.531372 113.345Z" fill="white"/>
<path d="M164.902 58.2422C181.878 61.8716 197.593 68.4251 211.352 77.2777L260.373 20.9446C234.428 7.56128 204.96 0 173.715 0C170.262 0 166.831 0.0923538 163.423 0.274719L164.902 58.2422Z" fill="white"/>
<path d="M259.167 134C250.542 112.482 235.238 93.8298 215.504 80.0605L264.864 23.3384C307.643 46.8897 340.241 86.5048 354.431 134H353.96C344.298 120.206 326.881 111 307 111C287.119 111 269.702 120.206 260.04 134H259.167Z" fill="white"/>
</svg>
